<svg width="200" height="63" viewBox="0 0 200 63" fill="none" xmlns="http://www.w3.org/2000/svg">
<path d="M92.7775 17.1065V10.4167H70.8335V17.1065H78.2401V38.3167H85.3709V17.1065H92.7775Z" fill="#011640"/>
<path d="M106.243 10.4561H99.8211L90.0902 38.3167H97.6543L99.3878 32.7289H106.834L108.646 38.3167H116.21L106.243 10.4561ZM100.964 26.472L103.012 18.3263H103.209L105.14 26.472H100.964Z" fill="#011640"/>
<path d="M125.17 20.7661V10.4561H118.079V38.3167H125.17V28.6757L125.407 28.3609L132.538 38.3167H141.481L130.489 23.9142L141.52 10.4561H132.735L125.17 20.7661Z" fill="#011640"/>
<path d="M163.568 17.1065V10.4167H141.624V17.1065H149.031V38.3167H156.162V17.1065H163.568Z" fill="#011640"/>
<path d="M173.416 27.81H181.453V38.3167H188.544V10.4561H181.453V21.0022H173.416V10.4561H166.325V38.3167H173.416V27.81Z" fill="#011640"/>
<path d="M200 10.4561H192.948V38.3167H200V10.4561Z" fill="#011640"/>
<path d="M140.067 53.2109C140.067 54.0852 140.768 54.7879 141.645 54.7879C142.521 54.7879 143.238 54.0852 143.238 53.2109C143.238 52.3521 142.521 51.6651 141.645 51.6651C140.768 51.6651 140.067 52.3521 140.067 53.2109Z" fill="#011640"/>
<path d="M150.203 51.2436C149.582 52.7737 147.032 52.399 147.032 51.0718V47.2621C147.032 45.8881 149.55 45.5759 150.315 46.9499L152.642 46.0287C151.733 44.0613 150.06 43.4836 148.674 43.4836C146.411 43.4836 144.179 44.764 144.179 47.2621V51.0718C144.179 53.5856 146.411 54.8503 148.626 54.8503C150.044 54.8503 151.749 54.1633 152.69 52.3678L150.203 51.2436Z" fill="#011640"/>
<path d="M153.455 51.0562C153.455 53.5856 155.798 54.8503 158.141 54.8503C160.483 54.8503 162.81 53.5856 162.81 51.0562V47.2777C162.81 44.7483 160.467 43.4836 158.125 43.4836C155.782 43.4836 153.455 44.7327 153.455 47.2777V51.0562ZM156.308 47.2777C156.308 46.4658 157.2 46.0287 158.093 46.0287C159.017 46.0287 159.957 46.419 159.957 47.2777V51.0562C159.957 51.8525 159.049 52.2585 158.141 52.2585C157.232 52.2585 156.308 51.8681 156.308 51.0562V47.2777Z" fill="#011640"/>
<path d="M164.325 54.6942H167.177V51.509L166.986 49.2763L167.066 49.2607L168.58 53.0547H170.54L172.022 49.2607L172.118 49.2763L171.942 51.509L171.927 54.6942H174.795V43.6398H171.942L169.552 49.0421L167.177 43.6398H164.325V54.6942Z" fill="#011640"/>
<path d="M176.143 53.2109C176.143 54.0852 176.844 54.7879 177.72 54.7879C178.597 54.7879 179.314 54.0852 179.314 53.2109C179.314 52.3521 178.597 51.6651 177.72 51.6651C176.844 51.6651 176.143 52.3521 176.143 53.2109Z" fill="#011640"/>
<path d="M180.666 54.6942H183.519V51.4622H185.192C187.917 51.4622 189.304 49.5105 189.304 47.5432C189.304 45.5915 187.933 43.6398 185.176 43.6398H180.666V54.6942ZM183.519 48.9796V46.2472H185.176C186.898 46.2316 186.898 48.9952 185.176 48.9796H183.519Z" fill="#011640"/>
<path d="M193.386 47.7305V43.6398H190.518V54.6942H193.386V50.8689L193.482 50.7439L196.367 54.6942H199.984L195.538 48.9796L200 43.6398H196.446L193.386 47.7305Z" fill="#011640"/>
<path d="M39.4302 2.93175L41.5241 0.816988C42.6046 -0.272329 44.3572 -0.272329 45.4376 0.816988C46.518 1.9063 46.518 3.67334 45.4376 4.76266L43.3436 6.87742C42.2632 7.96674 40.5106 7.96674 39.4302 6.87742C38.3497 5.7881 38.3497 4.02462 39.4302 2.93175ZM46.7996 15.3187C47.88 16.4081 49.6326 16.4081 50.713 15.3187L57.0724 8.89993C58.1528 7.81061 58.1528 6.04358 57.0724 4.95426C55.9919 3.86495 54.2393 3.86495 53.1589 4.95426L46.7996 11.3731C45.7191 12.4624 45.7191 14.2294 46.7996 15.3152V15.3187ZM61.6897 16.1774C60.6093 15.0881 58.8567 15.0881 57.7762 16.1774L53.9824 20.006C52.902 21.0953 52.902 22.8623 53.9824 23.9517C55.0629 25.041 56.8155 25.041 57.8959 23.9517L61.6897 20.1231C62.7701 19.0338 62.7701 17.2667 61.6897 16.1774ZM20.9503 25.41L21.0243 25.4845C22.1047 26.5738 23.8573 26.5738 24.9377 25.4845L37.857 12.4482C38.9375 11.3553 40.6936 11.3553 41.774 12.4482C42.8544 13.5375 42.8544 15.301 41.774 16.3868L21.4642 36.8673C20.3837 37.9567 20.3873 39.7201 21.4642 40.8095L21.5099 40.8556C22.5903 41.9449 24.3429 41.9449 25.4234 40.8556L43.0128 23.1214C44.0932 22.0321 45.8458 22.0321 46.9262 23.1214C48.0067 24.2107 48.0067 25.9777 46.9262 27.067L34.0316 40.075C32.9511 41.1643 32.9511 42.9313 34.0316 44.0171L34.0949 44.081C35.1753 45.1703 36.9279 45.1703 38.0084 44.081L47.7498 34.2594C48.8161 33.1842 50.5687 33.0742 51.6667 34.1174C52.8035 35.1961 52.8246 37.0022 51.7301 38.1057L28.3549 61.6839C27.8376 62.2055 27.1373 62.5 26.4053 62.4964H14.0596L1.86523 62.5C0.837592 62.5 0.00703858 61.6626 0.00703858 60.6265V48.3318L0 35.8845C0 35.1464 0.288582 34.4403 0.805918 33.9187L31.1105 3.35754C32.205 2.25049 33.9964 2.27178 35.0662 3.41786C36.1009 4.52492 35.9918 6.29196 34.9255 7.37063L20.9503 21.4679C19.8699 22.5572 19.8699 24.3242 20.9503 25.4135V25.41ZM30.4137 47.7357C29.3333 46.6464 27.5807 46.6464 26.5003 47.7357L24.3042 50.0137C23.6426 50.6807 22.5481 50.5353 22.0554 49.7298C20.9046 47.8492 19.525 46.0751 17.9062 44.4464C16.2908 42.8178 14.5276 41.4233 12.6624 40.2666C11.9234 39.8053 11.7439 38.8224 12.2507 38.1483C12.2964 38.0879 18.4657 31.6266 18.522 31.5698C19.6165 30.5124 19.5673 28.7312 18.4974 27.649C17.417 26.5596 15.6644 26.5596 14.584 27.649L6.4931 36.0441L6.51421 36.0193L5.51473 37.027V50.1804C6.89429 50.9362 8.18939 51.8942 9.35428 53.0687C10.5192 54.2432 11.4694 55.5489 12.219 56.9328H22.0273C24.1001 56.9328 26.0885 56.0989 27.5525 54.6193L30.4137 51.6707C31.4942 50.5814 31.4942 48.8143 30.4137 47.7286V47.7357ZM5.59568 37.1051C5.63791 37.1193 5.68014 37.1335 5.72589 37.1441L5.61679 37.0838L5.59919 37.1051H5.59568ZM25.4058 38.8437C25.4058 39.9188 24.54 40.7917 23.4737 40.7917C22.4073 40.7917 21.5416 39.9188 21.5416 38.8437C21.5416 37.7686 22.4073 36.8957 23.4737 36.8957C24.54 36.8957 25.4058 37.7686 25.4058 38.8437ZM37.9591 42.0478C37.9591 43.1229 37.0933 43.9958 36.027 43.9958C34.9607 43.9958 34.0949 43.1229 34.0949 42.0478C34.0949 40.9727 34.9607 40.0998 36.027 40.0998C37.0933 40.0998 37.9591 40.9727 37.9591 42.0478ZM24.892 23.4478C24.892 24.5229 24.0262 25.3958 22.9599 25.3958C21.8935 25.3958 21.0278 24.5229 21.0278 23.4478C21.0278 22.3727 21.8935 21.4998 22.9599 21.4998C24.0262 21.4998 24.892 22.3727 24.892 23.4478Z" fill="url(#paint0_linear_969_1049)"/>
<defs>
<linearGradient id="paint0_linear_969_1049" x1="50.9382" y1="9.53153" x2="5.77558" y2="57.2232" gradientUnits="userSpaceOnUse">
<stop stop-color="#FF9933"/>
<stop offset="0.14" stop-color="#FF873B"/>
<stop offset="0.65" stop-color="#FF4A5A"/>
<stop offset="0.9" stop-color="#FF3366"/>
</linearGradient>
</defs>
</svg>
